<?xml version="1.0" standalone="no"?>
<!DOCTYPE svg PUBLIC "-//W3C//DTD SVG 20010904//EN"
 "http://www.w3.org/TR/2001/REC-SVG-20010904/DTD/svg10.dtd">
<svg version="1.0" xmlns="http://www.w3.org/2000/svg"
 width="319.000000pt" height="319.000000pt" viewBox="0 0 319.000000 319.000000"
 preserveAspectRatio="xMidYMid meet">
<metadata>
Created by potrace 1.16, written by Peter Selinger 2001-2019
</metadata>
<g transform="translate(0.000000,319.000000) scale(0.100000,-0.100000)"
fill="#000000" stroke="none">
<path d="M2669 2597 c-91 -40 -176 -81 -189 -90 -14 -9 -31 -17 -39 -17 -7 0
-64 -24 -126 -54 -83 -40 -118 -63 -135 -87 -21 -30 -57 -76 -139 -175 -49
-60 -10 6 51 87 89 117 116 157 95 140 -14 -11 -28 -12 -71 -3 -36 7 -83 8
-142 2 -51 -5 -94 -5 -104 0 -9 5 -33 5 -55 0 -22 -5 -41 -7 -44 -5 -2 3 -10
0 -17 -6 -7 -6 -29 -11 -48 -12 -20 -1 -38 -8 -41 -16 -4 -11 -8 -11 -20 -1
-9 7 -18 10 -21 7 -4 -3 9 -16 27 -27 32 -20 32 -21 7 -16 -14 3 -34 9 -45 12
-17 5 -17 5 -1 -6 10 -6 57 -70 105 -143 49 -73 91 -133 95 -135 4 -2 18 -21
30 -43 12 -21 24 -39 27 -39 3 0 19 18 35 40 17 22 34 40 39 40 4 0 1 -7 -7
-16 -32 -31 -37 -57 -41 -212 -5 -169 -7 -1393 -3 -1397 2 -2 136 88 298 200
l295 202 8 154 c4 85 13 419 21 742 l13 589 45 46 c77 81 275 312 267 312 -2
0 -79 -33 -170 -73z"/>
<path d="M291 2612 c2 -5 58 -77 124 -160 l120 -150 70 -17 c39 -9 126 -30
195 -46 171 -40 238 -57 668 -163 204 -50 372 -90 372 -88 0 4 -53 75 -61 82
-4 3 -19 23 -35 46 -85 120 -100 141 -119 160 -22 22 -74 43 -170 68 -134 35
-696 170 -855 206 -52 12 -124 30 -160 40 -89 25 -153 35 -149 22z"/>
<path d="M1207 2543 c-7 -11 -125 -26 -202 -26 -36 0 -45 -2 -30 -8 20 -9 -28
-3 -70 8 -13 3 -16 2 -10 -4 27 -26 601 -165 668 -162 26 1 28 2 7 6 -14 2
-36 6 -50 9 -23 6 -24 7 -5 14 17 7 12 10 -26 21 -32 8 -50 21 -62 41 -9 15
-23 28 -32 28 -8 0 -15 4 -15 9 0 5 -8 12 -17 15 -10 3 -30 17 -45 31 l-28 26
-1 -38 c-1 -38 -15 -97 -19 -78 -1 6 -4 21 -6 35 -8 45 -22 86 -23 66 -1 -19
-1 -19 -14 -1 -8 10 -17 14 -20 8z"/>
<path d="M840 1782 c0 -76 3 -101 14 -105 19 -8 26 1 26 36 0 28 2 29 32 23
64 -13 92 57 42 108 -15 14 -32 26 -39 26 -7 0 -27 3 -44 6 l-31 7 0 -101z"/>
<path d="M990 1745 c0 -82 2 -96 19 -104 26 -14 31 -5 31 51 0 42 3 49 18 46
13 -2 18 -16 22 -63 4 -47 9 -61 23 -63 15 -3 17 5 17 60 0 73 -18 108 -56
108 -20 0 -24 5 -24 30 0 25 -4 30 -25 30 -25 0 -25 0 -25 -95z"/>
<path d="M1173 1740 c-44 -18 -42 -104 4 -140 61 -48 128 0 103 74 -18 55 -63
83 -107 66z"/>
<path d="M1400 1661 c-32 -60 5 -137 71 -147 80 -13 106 78 39 139 -37 33 -94
38 -110 8z"/>
<path d="M957 1473 c-4 -3 -7 -36 -7 -72 0 -54 3 -68 19 -78 26 -16 31 -8 31
49 0 36 4 48 15 48 10 0 15 -11 16 -35 3 -78 9 -95 35 -95 10 0 14 14 14 58 0
74 -16 106 -55 110 -17 2 -34 8 -39 13 -12 11 -20 11 -29 2z"/>
<path d="M1128 1416 c-18 -9 -24 -21 -26 -55 -4 -51 14 -83 57 -101 27 -11 35
-10 57 5 24 15 26 22 21 62 -8 71 -60 113 -109 89z"/>
<path d="M1260 1310 c0 -69 3 -81 20 -90 24 -13 28 -6 32 60 2 32 7 45 18 45
11 0 16 -15 18 -60 3 -57 12 -75 40 -75 8 0 12 20 12 68 0 80 -20 112 -70 112
-17 0 -30 4 -30 8 0 4 -9 8 -20 9 -18 2 -20 -4 -20 -77z"/>
<path d="M573 1289 c8 -115 13 -247 15 -357 2 -69 5 -84 20 -88 9 -4 31 -12
49 -20 17 -8 39 -11 47 -8 11 4 16 2 14 -6 -2 -7 14 -18 35 -26 21 -7 35 -9
32 -4 -4 6 -11 10 -18 10 -6 0 -26 15 -44 32 -26 25 -36 30 -42 19 -7 -10 -14
-10 -40 3 -36 19 -42 31 -7 15 17 -8 29 -8 42 0 11 7 12 10 4 8 -16 -4 -60 43
-60 64 1 10 5 8 14 -4 8 -11 17 -14 20 -8 4 5 -2 18 -12 28 -11 10 -22 37 -25
61 -5 39 -4 42 9 25 13 -17 14 -17 7 1 -4 13 -3 17 5 12 7 -4 12 -1 12 8 0 20
-17 30 -23 14 -3 -7 -6 -1 -6 15 -1 15 -5 27 -10 27 -12 0 -21 103 -10 116 5
6 6 20 2 30 -6 17 -8 16 -14 -6 -5 -17 -7 -5 -8 37 -1 34 3 63 8 65 5 2 2 9
-6 17 -14 13 -15 4 -10 -80z"/>
<path d="M689 1249 c0 -8 0 -47 1 -87 1 -53 -3 -80 -15 -99 -9 -13 -14 -27
-11 -30 3 -3 8 2 12 11 4 10 10 13 18 8 21 -17 45 -21 52 -10 4 7 3 8 -4 4 -8
-5 -12 0 -12 14 0 16 5 19 23 15 36 -10 61 25 54 76 -6 45 -41 91 -63 82 -8
-3 -24 3 -34 12 -16 14 -20 15 -21 4z"/>
<path d="M957 1198 c-2 -7 -5 -17 -5 -21 -1 -4 -11 -16 -24 -26 -26 -21 -30
-75 -9 -115 27 -49 109 -59 105 -12 -1 9 2 16 6 16 16 0 -10 76 -33 95 l-23
21 20 17 c18 14 19 18 6 27 -20 13 -37 13 -43 -2z"/>
<path d="M1055 1107 c-26 -20 -13 -58 32 -90 21 -15 33 -27 27 -27 -6 0 -21 9
-34 20 -49 42 -57 4 -9 -41 52 -48 110 -31 93 28 -4 16 -6 32 -5 37 6 26 -12
55 -43 70 -41 19 -38 19 -61 3z"/>
<path d="M1201 1054 c-21 -15 -23 -23 -18 -67 3 -39 11 -56 32 -74 35 -30 90
-29 90 2 0 11 3 22 7 25 11 8 -9 74 -30 97 -25 30 -54 35 -81 17z"/>
<path d="M1331 940 c0 -44 3 -80 7 -80 4 0 16 -3 27 -6 18 -5 20 0 20 48 0 41
4 53 15 53 11 0 16 -15 18 -61 3 -54 6 -63 27 -72 29 -13 27 -17 25 78 -2 74
-18 100 -61 100 -15 0 -31 5 -34 10 -3 6 -15 10 -25 10 -16 0 -18 -9 -19 -80z"/>
<path d="M1600 901 c-26 -50 -1 -130 50 -156 36 -19 51 -19 76 0 19 15 19 15
0 30 -17 13 -18 15 -3 15 35 0 9 83 -35 114 -31 22 -75 20 -88 -3z"/>
</g>
</svg>
